# xmcd CD database file
#
# Track frame offsets:
#	150
#	2230
#	21407
#	40772
#	44465
#	61802
#	81657
#	100237
#	110197
#	122945
#	141582
#	161937
#	165870
#	184247
#	200765
#	219882
#
# Disc length: 3168 seconds
#
# Revision: 8
# Processed by: cddbd v1.5PL3 Copyright (c) Steve Scherf et al.
# Submitted via: CDex 1.51
#
DISCID=ef0c5e10
DTITLE=the Corrs - Forgiven, Not Forgotten
DYEAR=1900
DGENRE=Pop
TTITLE0=Erin Shore(Traditional Intro) (Instrumental)
TTITLE1=Forgiven Not Forgotten
TTITLE2=Heaven Knows
TTITLE3=Along With The Girls (Instrumental)
TTITLE4=Someday
TTITLE5=Runaway
TTITLE6=The Right Time
TTITLE7=The Minstrel Boy (Instrumental)
TTITLE8=Toss The Feathers (Instrumental)
TTITLE9=Love To Love You
TTITLE10=Secret Life
TTITLE11=Carraroe Jig (Instrumental)
TTITLE12=Closer
TTITLE13=Leave Me Alone
TTITLE14=Erin Shore (Instrumental)
TTITLE15=Somebody Else's Boyfriend
EXTD=
EXTT0=
EXTT1=
EXTT2=
EXTT3=
EXTT4=
EXTT5=
EXTT6=
EXTT7=
EXTT8=
EXTT9=
EXTT10=
EXTT11=
EXTT12=
EXTT13=
EXTT14=
EXTT15=
PLAYORDER=
